# xmcd
#
# Track frame offsets:
#	150
#	11733
#	25506
#	50262
#	76666
#	91511
#	103105
#	120394
#	138658
#	159154
#	172450
#	195335
#	212901
#	231074
#
# Disc length: 3349 seconds
#
# Revision: 0
# Processed by: cddbd v1.5.2PL0 Copyright (c) Steve Scherf et al.
# Submitted via: EasyCDDAExtractor 16.0.6.1
#
DISCID=a50d130e
DTITLE=Ψαραντώνης - Σαράντα δύο μεγ. επιτυχίες-Ψαραντώνης 3
DYEAR=2010
DGENRE=Κρητική
TTITLE0=Ψαραντώνης - Παλιό κρασί είν' η σκέψη μου
TTITLE1=Ψαραντώνης - Ζηλεύω του Σταυραετού [ριζίτικο, διασκ. Ψαραντώνης]
TTITLE2=Ψαραντώνης - Τούρκα είσαι, γιά Ρωμιά
TTITLE3=Ψαραντώνης - Θ' ανεβώ στον ουρανό [Ψαραντώνης-Ηλίας Βασιλαράς]
TTITLE4=Ψαραντώνης - Η μνήμη που πληγώνει
TTITLE5=Ψαραντώνης - Ο μαουκάς [Γ. Κονιτόπουλος-ίδιος κ Γ. Γιαννούλης]
TTITLE6=Ψαραντώνης - Ξεκινάει μιά ψαροπούλα [Δημ. Γκόγκος ή Μπαγιαντέρας]
TTITLE7=Ψαραντώνης - Εκατό δυό αρχοντόπουλα [ριζίτικο, διασκ. Ψαραντώνης]
TTITLE8=Ψαραντώνης - Έμ' όντε πας στην εκκλησιά [μαλεβιζιώτης παραδ., διασκ. Ψ
TTITLE8=αραντώνης]
TTITLE9=Ψαραντώνης - Ζηλιάρικο [αγνώστου]
TTITLE10=Ψαραντώνης - Απόψε κρύος έπιασε [ριζίτικο]
TTITLE11=Ψαραντώνης - Ταξίδι
TTITLE12=Ψαραντώνης-Ξυλούρη Νίκη - Το δαχτυλίδι [Ψαραντώνης-Βιτσέντζος Κορνάρο
TTITLE12=ς]
TTITLE13=Ψαραντώνης - Κούντουρο κούντουρο σκοινί [Γιώργης Κουτάντος-στ. παραδ.
TTITLE13=]
EXTD=
EXTT0=
EXTT1=
EXTT2=
EXTT3=
EXTT4=
EXTT5=
EXTT6=
EXTT7=
EXTT8=
EXTT9=
EXTT10=
EXTT11=
EXTT12=
EXTT13=
PLAYORDER=
